<?xml version="1.0" encoding="utf-8"?>
<svg version="1.1" id="Layer_1" xmlns="http://www.w3.org/2000/svg" xmlns:xlink="http://www.w3.org/1999/xlink" x="0px" y="0px"
     viewBox="0 0 595.3 841.9" enable-background="new 0 0 595.3 841.9" xml:space="preserve">
    <symbol id="logo-icon" viewBox="0 0 265.000000 265.000000" preserveAspectRatio="xMidYMid meet">
        <!-- License:
            Copyright (c) 2020, 2021 Jonas Oxenbøll Petersen, CAVI - Center for Advanced Visualization and Interaction, Aarhus University
            Distributed under Creative Commons Attribution 4.0 (CC-BY-4.0)
        -->        
    <g transform="translate(0.000000,265.000000) scale(0.100000,-0.100000)"
    fill="#000000" stroke="none">
    <path d="M407 2300 c-119 -42 -177 -101 -177 -180 0 -45 0 -46 120 -153 41
    -38 42 -40 36 -87 -10 -75 -69 -251 -186 -555 -173 -449 -173 -450 -178 -593
    -5 -145 8 -190 70 -258 53 -57 108 -77 196 -72 126 7 265 94 471 293 63 60
    147 150 187 198 l74 88 0 -83 c1 -157 49 -304 129 -390 129 -140 376 -156 607
    -40 336 170 658 570 798 992 58 174 68 246 64 442 -3 165 -4 176 -31 233 -62
    132 -123 176 -252 183 -130 7 -231 -31 -282 -107 -29 -43 -31 -108 -4 -142 57
    -73 87 -169 101 -318 16 -172 -18 -337 -110 -528 -94 -197 -228 -355 -354
    -414 -152 -72 -228 -10 -228 186 0 179 53 341 234 719 95 196 111 237 115 290
    4 52 2 66 -19 95 -12 19 -40 43 -60 53 -48 25 -166 34 -240 19 -100 -21 -111
    -34 -233 -269 -137 -264 -256 -458 -399 -649 -104 -139 -338 -395 -350 -382
    -8 8 69 222 182 505 218 547 249 723 145 843 -18 22 -59 52 -91 67 -49 24 -72
    28 -167 31 -92 3 -120 0 -168 -17z m317 -60 c27 -14 63 -42 80 -64 31 -37 31
    -40 30 -144 -1 -136 -23 -208 -186 -622 -140 -354 -201 -530 -196 -568 2 -22
    9 -28 35 -30 27 -3 43 8 128 90 250 239 482 577 732 1068 70 138 87 151 204
    158 96 6 162 -11 190 -47 39 -49 25 -102 -98 -357 -182 -377 -228 -523 -228
    -724 0 -115 2 -130 26 -175 14 -28 41 -61 60 -73 29 -21 43 -23 95 -19 232 18
    509 376 588 761 22 103 20 269 -3 381 -17 84 -67 205 -91 220 -5 3 -10 21 -10
    40 0 45 37 87 101 115 44 18 66 21 140 18 78 -3 92 -6 131 -33 53 -38 103
    -126 117 -211 89 -510 -334 -1265 -852 -1520 -110 -53 -176 -67 -291 -62 -145
    8 -239 64 -295 177 -43 86 -52 120 -64 268 l-12 138 -30 3 c-27 2 -38 -7 -99
    -83 -86 -105 -288 -304 -381 -374 -192 -145 -329 -163 -422 -57 -80 90 -83
    228 -9 441 24 72 81 225 126 340 101 258 165 446 185 542 21 102 10 129 -81
    203 -53 42 -64 56 -64 81 0 42 15 65 59 93 71 45 118 56 231 53 90 -2 113 -6
    154 -27z"/>
    </g>
    </symbol>
    <symbol id="wpm-package-open-icon" viewBox="0 0 195 195" enable-background="new 0 0 195 195" xml:space="preserve">
        <!-- License:
            Copyright (c) 2020, 2021 Jonas Oxenbøll Petersen, CAVI - Center for Advanced Visualization and Interaction, Aarhus University
            Distributed under Creative Commons Attribution 4.0 (CC-BY-4.0)
        -->        
        
            <g>
                <polygon fill="#8C6239" points="35.9,45.1 83.6,72.2 86.5,163.7 42,121.1 	"/>
                <polygon fill="#C69C6D" points="163.2,51.3 155.1,132.7 86.5,163.7 83.6,72.2 	"/>
                <g id="izg6T3.tif_6_">
                        <g>
                                <path fill="#298158" d="M129.2,125.9c-1.2,0.2-2.5,0.6-3.7,0.6c-2.5,0.1-4-1.4-5-3.6c-0.7-1.6-1.1-3.5-1.7-5.5
                                        c-0.8,1.8-1.6,3.5-2.4,5.2c-2.3,4.8-4.8,9.4-8.1,13.6c-3.5,4.2-7.4,5.2-9.6,2.2c-1-1.4-1.7-3.5-1.7-5.6c0.2-5.4,1-11,1.5-16.8
                                        c0.4-4.2,0.6-8.6,0.8-13c0.1-1.7-0.7-2.5-2.1-2.8c-0.3-0.1-0.6-0.2-1-0.3c-3.3-0.8-3.8-2.7-1.7-6.4c2.9-5,11.6-8.8,14.8-5.1
                                        c1.8,2,2,4.9,1.7,7.6c-0.7,7.4-1.8,14.6-2.6,21.5c-0.4,2.9-0.6,5.7-1,8.5c0.2,0,0.4,0,0.5,0c0.9-1.7,1.9-3.3,2.7-5.1
                                        c4.6-9.8,7.8-20.1,10.2-31.2c0.3-1.2,0.4-2.6,0.9-3.7c0.6-1.3,1.3-3,2.2-3.7c1.8-1.3,3.9-2.6,5.8-2.9c2.6-0.5,3.6,1.7,2.8,5
                                        c-1,4.5-2.2,9-3.1,13.3c-1.2,5.5-2.2,10.9-1.2,15.5c0.2,0.8,0.6,1.5,1,2c0.7,1,1.7,0.8,2.9-0.3c2.6-2.3,4.2-5.3,5.6-8.5
                                        c2.7-6.6,4.2-13.3,3.5-19.9c-0.3-3.3-1-6.5-3-8.8c-1.5-1.7-0.3-5.7,2.4-7.9c4.9-4.1,8-3.2,9.7,2.4c1.3,5.6,0.4,10.2,0.4,10.7
                                        c-0.7,6.9-2.5,13.5-5.2,20c-2.5,6-5.3,11.6-9.4,16.4c-1.6,1.9-3.4,3.5-5.2,5.3C130.6,125.1,129.9,125.5,129.2,125.9z M150.5,76.9
                                        c-0.2-1-0.4-2.7-0.9-4.4c-1.2-4.6-5.2-5.1-8.8-1.1c-1.9,2.2-2.3,4.3-1,5.9c1.7,2.1,2.3,4.9,2.7,7.9c0.6,4.5,0.1,9.1-1.1,13.8
                                        c-1.4,5.5-3.3,10.8-7,15.2c-2.5,3-4.7,3.7-6.1,0.9c-0.5-1-0.8-2.2-0.9-3.5c-0.2-4.3,0.4-9,1.5-13.7c0.9-4.4,2.1-8.8,3.2-13.4
                                        c0.6-2.7,0-4.2-2-4c-1.5,0.2-3.1,1.1-4.6,2c-1.4,0.9-2.1,2.6-2.5,4.4c-1.6,6.2-3.1,12.3-5,18.2c-1.5,4.7-3.3,9.3-5.1,13.8
                                        c-1.1,2.6-2.5,5.1-3.9,7.5c-0.3,0.5-1,0.8-1.5,1.2c-0.1-0.5-0.5-0.9-0.4-1.5c0.8-6.7,1.7-13.7,2.4-20.9c0.4-4.2,0.6-8.5,0.7-12.8
                                        c0-2.1-1-3.7-2.9-4.1c-3.5-0.8-6.8,0.9-9.9,3.7c-1.3,1.2-2.5,2.7-2.3,4.6c0.1,1.9,1.9,2,3.2,2.3c1.9,0.4,2.7,1.7,2.7,3.8
                                        c0,1.8,0,3.6-0.2,5.3c-0.6,6.1-1.3,12-2,17.7c-0.4,3.9-0.8,7.7,0.5,10.9c1,2.5,4.6,3.2,7.2,0.6c3.8-3.8,6-8.4,8.5-13
                                        c1.2-2.3,2.1-4.7,3.2-7.1c0.2-0.5,0.8-1.1,1.2-1.2c0.3-0.1,0.7,0.5,0.8,0.9c0.4,1.3,0.6,2.7,1,4c1.9,5.9,6,6,11.3,1.8
                                        c3.4-2.6,5.9-6.4,8.2-10.4c2.8-4.8,5-9.9,6.8-15.3C149.3,90.8,150.5,84.3,150.5,76.9z"/>
                                <path fill="#31A36E" d="M150.5,76.9c0.1,7.4-1.2,13.8-3.2,20.2c-1.7,5.4-4,10.5-6.8,15.3c-2.3,4-4.9,7.8-8.2,10.4
                                        c-5.3,4.1-9.4,4-11.3-1.8c-0.4-1.3-0.6-2.7-1-4c-0.1-0.4-0.5-0.9-0.8-0.9c-0.4,0.1-0.9,0.7-1.2,1.2c-1.1,2.4-2,4.8-3.2,7.1
                                        c-2.5,4.6-4.7,9.2-8.5,13c-2.6,2.6-6.2,1.9-7.2-0.6c-1.2-3.2-0.9-7-0.5-10.9c0.6-5.7,1.3-11.6,2-17.7c0.2-1.8,0.2-3.6,0.2-5.3
                                        c0-2-0.8-3.4-2.7-3.8c-1.3-0.3-3-0.3-3.2-2.3c-0.1-1.8,1-3.4,2.3-4.6c3.1-2.8,6.4-4.5,9.9-3.7c1.9,0.4,3,2,2.9,4.1
                                        c0,4.3-0.3,8.6-0.7,12.8c-0.7,7.2-1.7,14.2-2.4,20.9c-0.1,0.5,0.3,1,0.4,1.5c0.5-0.4,1.2-0.7,1.5-1.2c1.4-2.5,2.9-4.9,3.9-7.5
                                        c1.9-4.5,3.7-9.1,5.1-13.8c1.8-5.9,3.3-11.9,5-18.2c0.5-1.8,1.1-3.6,2.5-4.4c1.5-0.9,3.1-1.9,4.6-2c2.1-0.3,2.7,1.3,2,4
                                        c-1.1,4.6-2.2,9-3.2,13.4c-1,4.8-1.7,9.4-1.5,13.7c0.1,1.3,0.4,2.5,0.9,3.5c1.5,2.8,3.6,2.1,6.1-0.9c3.8-4.4,5.6-9.7,7-15.2
                                        c1.2-4.7,1.7-9.3,1.1-13.8c-0.4-3-1-5.8-2.7-7.9c-1.3-1.6-0.9-3.8,1-5.9c3.6-4,7.6-3.5,8.8,1.1C150,74.2,150.3,76,150.5,76.9z"/>
                        </g>
                </g>
                <polygon fill="#754C24" points="105.9,31.3 107.3,66 83.6,72.2 35.9,45.1 	"/>
                <polygon fill="#603813" points="163.2,51.3 107.3,66 105.9,31.3 	"/>
                <polygon fill="#A67C52" points="35.9,45.1 83.6,72.2 42.3,103.8 0.9,67.4 	"/>
                <polygon fill="#A67C52" points="105.9,31.3 35.9,45.1 17.2,25.2 86.5,16.5 	"/>
                <polygon fill="#A67C52" points="163.2,51.3 105.9,31.3 130.3,8.9 190.1,21.8 	"/>
                <polygon fill="#A67C52" points="83.6,72.2 163.2,51.3 193.2,81.2 111.8,112.5 	"/>
            </g>
    </symbol>
    <symbol id="wpm-package-closed-icon" viewBox="0 0 195 195" enable-background="new 0 0 195 195" xml:space="preserve">
        <!-- License:
            Copyright (c) 2020, 2021 Jonas Oxenbøll Petersen, CAVI - Center for Advanced Visualization and Interaction, Aarhus University
            Distributed under Creative Commons Attribution 4.0 (CC-BY-4.0)
        -->        
        <g>
                <polygon fill="#8C6239" points="35.8,45.1 83.5,72.2 86.5,163.7 41.9,121.1 	"/>
                <polygon fill="#C69C6D" points="163.2,51.3 155,132.7 86.5,163.7 83.5,72.2 	"/>
                <polygon fill="#A67C52" points="104.9,31.3 163.2,51.3 83.5,72.2 35.8,45.1 	"/>
                <g id="izg6T3.tif_3_">
                        <g>
                                <path fill="#298158" d="M129.1,125.9c-1.2,0.2-2.5,0.6-3.7,0.6c-2.5,0.1-4-1.4-5-3.6c-0.7-1.6-1.1-3.5-1.7-5.5
                                        c-0.8,1.8-1.6,3.5-2.4,5.2c-2.3,4.8-4.8,9.4-8.1,13.6c-3.5,4.2-7.4,5.2-9.6,2.2c-1-1.4-1.7-3.5-1.7-5.6c0.2-5.4,1-11,1.5-16.8
                                        c0.4-4.2,0.6-8.6,0.8-13c0.1-1.7-0.7-2.5-2.1-2.8c-0.3-0.1-0.6-0.2-1-0.3c-3.3-0.8-3.8-2.7-1.7-6.4c2.9-5,11.6-8.8,14.8-5.1
                                        c1.8,2,2,4.9,1.7,7.6c-0.7,7.4-1.8,14.6-2.6,21.5c-0.4,2.9-0.6,5.7-1,8.5c0.2,0,0.4,0,0.5,0c0.9-1.7,1.9-3.3,2.7-5.1
                                        c4.6-9.8,7.8-20.1,10.2-31.2c0.3-1.2,0.4-2.6,0.9-3.7c0.6-1.3,1.3-3,2.2-3.7c1.8-1.3,3.9-2.6,5.8-2.9c2.6-0.5,3.6,1.7,2.8,5
                                        c-1,4.5-2.2,9-3.1,13.3c-1.2,5.5-2.2,10.9-1.2,15.5c0.2,0.8,0.6,1.5,1,2c0.7,1,1.7,0.8,2.9-0.3c2.6-2.3,4.2-5.3,5.6-8.5
                                        c2.7-6.6,4.2-13.3,3.5-19.9c-0.3-3.3-1-6.5-3-8.8c-1.5-1.7-0.3-5.7,2.4-7.9c4.9-4.1,8-3.2,9.7,2.4c1.3,5.6,0.4,10.2,0.4,10.7
                                        c-0.7,6.9-2.5,13.5-5.2,20c-2.5,6-5.3,11.6-9.4,16.4c-1.6,1.9-3.4,3.5-5.2,5.3C130.5,125.1,129.8,125.5,129.1,125.9z M150.4,76.9
                                        c-0.2-1-0.4-2.7-0.9-4.4c-1.2-4.6-5.2-5.1-8.8-1.1c-1.9,2.2-2.3,4.3-1,5.9c1.7,2.1,2.3,4.9,2.7,7.9c0.6,4.5,0.1,9.1-1.1,13.8
                                        c-1.4,5.5-3.3,10.8-7,15.2c-2.5,3-4.7,3.7-6.1,0.9c-0.5-1-0.8-2.2-0.9-3.5c-0.2-4.3,0.4-9,1.5-13.7c0.9-4.4,2.1-8.8,3.2-13.4
                                        c0.6-2.7,0-4.2-2-4c-1.5,0.2-3.1,1.1-4.6,2c-1.4,0.9-2.1,2.6-2.5,4.4c-1.6,6.2-3.1,12.3-5,18.2c-1.5,4.7-3.3,9.3-5.1,13.8
                                        c-1.1,2.6-2.5,5.1-3.9,7.5c-0.3,0.5-1,0.8-1.5,1.2c-0.1-0.5-0.5-0.9-0.4-1.5c0.8-6.7,1.7-13.7,2.4-20.9c0.4-4.2,0.6-8.5,0.7-12.8
                                        c0-2.1-1-3.7-2.9-4.1c-3.5-0.8-6.8,0.9-9.9,3.7c-1.3,1.2-2.5,2.7-2.3,4.6c0.1,1.9,1.9,2,3.2,2.3c1.9,0.4,2.7,1.7,2.7,3.8
                                        c0,1.8,0,3.6-0.2,5.3c-0.6,6.1-1.3,12-2,17.7c-0.4,3.9-0.8,7.7,0.5,10.9c1,2.5,4.6,3.2,7.2,0.6c3.8-3.8,6-8.4,8.5-13
                                        c1.2-2.3,2.1-4.7,3.2-7.1c0.2-0.5,0.8-1.1,1.2-1.2c0.3-0.1,0.7,0.5,0.8,0.9c0.4,1.3,0.6,2.7,1,4c1.9,5.9,6,6,11.3,1.8
                                        c3.4-2.6,5.9-6.4,8.2-10.4c2.8-4.8,5-9.9,6.8-15.3C149.2,90.8,150.4,84.3,150.4,76.9z"/>
                                <path fill="#31A36E" d="M150.4,76.9c0.1,7.4-1.2,13.8-3.2,20.2c-1.7,5.4-4,10.5-6.8,15.3c-2.3,4-4.9,7.8-8.2,10.4
                                        c-5.3,4.1-9.4,4-11.3-1.8c-0.4-1.3-0.6-2.7-1-4c-0.1-0.4-0.5-0.9-0.8-0.9c-0.4,0.1-0.9,0.7-1.2,1.2c-1.1,2.4-2,4.8-3.2,7.1
                                        c-2.5,4.6-4.7,9.2-8.5,13c-2.6,2.6-6.2,1.9-7.2-0.6c-1.2-3.2-0.9-7-0.5-10.9c0.6-5.7,1.3-11.6,2-17.7c0.2-1.8,0.2-3.6,0.2-5.3
                                        c0-2-0.8-3.4-2.7-3.8c-1.3-0.3-3-0.3-3.2-2.3c-0.1-1.8,1-3.4,2.3-4.6c3.1-2.8,6.4-4.5,9.9-3.7c1.9,0.4,3,2,2.9,4.1
                                        c0,4.3-0.3,8.6-0.7,12.8c-0.7,7.2-1.7,14.2-2.4,20.9c-0.1,0.5,0.3,1,0.4,1.5c0.5-0.4,1.2-0.7,1.5-1.2c1.4-2.5,2.9-4.9,3.9-7.5
                                        c1.9-4.5,3.7-9.1,5.1-13.8c1.8-5.9,3.3-11.9,5-18.2c0.5-1.8,1.1-3.6,2.5-4.4c1.5-0.9,3.1-1.9,4.6-2c2.1-0.3,2.7,1.3,2,4
                                        c-1.1,4.6-2.2,9-3.2,13.4c-1,4.8-1.7,9.4-1.5,13.7c0.1,1.3,0.4,2.5,0.9,3.5c1.5,2.8,3.6,2.1,6.1-0.9c3.8-4.4,5.6-9.7,7-15.2
                                        c1.2-4.7,1.7-9.3,1.1-13.8c-0.4-3-1-5.8-2.7-7.9c-1.3-1.6-0.9-3.8,1-5.9c3.6-4,7.6-3.5,8.8,1.1C149.9,74.2,150.2,76,150.4,76.9z"
                                        />
                        </g>
                </g>
        </g>
    </symbol>
    <symbol id="cauldron-icon" viewBox="0 0 121.1 121.1" enable-background="new 0 0 121.1 121.1" xml:space="preserve">
        <!-- License:
            Copyright (c) 2020, 2021 Jonas Oxenbøll Petersen, CAVI - Center for Advanced Visualization and Interaction, Aarhus University
            Distributed under Creative Commons Attribution 4.0 (CC-BY-4.0)
        -->        
        <path fill="none" stroke="#000000" stroke-width="12" stroke-miterlimit="10" d="M102.4,36.5v60.9c0,9.7-9.1,17.6-20.3,17.6H39.8
                c-11.2,0-20.3-7.9-20.3-17.6V36.5"/>
        <path d="M83.6,29.9c-2.2,4.4-5.1,7.5-8.6,10.1c-3,2.2-6.2,4-9.8,5.1c-2.9,1-6,1.6-9,0.9c-4.7-1.2-6.9-4.2-5.4-9.2
                c0.3-1,0.8-2.1,1.1-3.1c0.1-0.3,0.1-0.9-0.1-1c-0.2-0.2-0.8-0.2-1.1-0.1c-1.5,0.7-3,1.6-4.6,2.1c-3.2,1.1-6.4,2.4-9.9,2.2
                c-2.4-0.2-3.8-3-3-5.1c0.9-2.6,2.8-4.5,4.7-6.4c2.7-2.7,5.4-5.3,8.1-8c0.8-0.8,1.5-1.6,2.1-2.5c0.8-1,0.9-2,0.2-3.2
                c-0.5-0.8-1.2-1.7-0.6-2.6c0.6-0.9,1.7-1,2.7-0.9c2.4,0.2,4.5,1.1,5.8,3.2c0.7,1.2,0.7,2.4,0,3.4c-1.6,2.1-3.2,4.1-5,6
                c-3.2,3.4-6.5,6.6-9.7,9.9c-0.3,0.3-0.3,0.7-0.5,1.1c0.4,0.1,0.9,0.4,1.2,0.3c1.7-0.5,3.5-1,5.1-1.8c2.8-1.4,5.5-2.9,8.1-4.6
                c3.1-2.1,6.1-4.4,9.1-6.7c0.9-0.7,1.8-1.2,2.8-0.8c1.1,0.4,2.3,0.8,3.1,1.5c1.2,1,1.1,2.2-0.2,3.2c-2.1,1.8-4.3,3.5-6.4,5.4
                c-2.3,2.1-4.4,4.4-6,7.1c-0.5,0.8-0.8,1.8-0.9,2.8c-0.3,2.8,1.2,3.9,3.8,3.7c3.9-0.2,7-2.3,9.9-4.7c2.4-2,4.2-4.5,5.3-7.5
                c0.7-1.9,1.3-3.9,0.9-6c-0.3-1.6,0.6-2.5,2.4-2.6c3.3-0.1,5.5,2.5,5,5.8C84.1,28.1,83.8,29.2,83.6,29.9z"/>
        <path d="M53.1,64.3c0.4,1.5,0.3,2.9,0.1,4.2c-0.3,1.2-0.7,2.3-1.3,3.3c-0.5,0.9-1.1,1.7-2,2.1c-1.4,0.7-2.6,0.4-3.3-1.1
                c-0.1-0.3-0.2-0.7-0.4-1c0-0.1-0.2-0.2-0.2-0.2c-0.1,0-0.2,0.1-0.3,0.2c-0.2,0.5-0.4,1-0.7,1.5c-0.5,0.9-1,1.9-1.9,2.6
                c-0.6,0.5-1.5,0.1-1.8-0.6c-0.3-0.8-0.3-1.7-0.2-2.5c0.1-1.2,0.2-2.4,0.3-3.7c0-0.3,0-0.7,0-1.1c0-0.4-0.2-0.7-0.6-0.8
                c-0.3-0.1-0.6-0.1-0.7-0.5c0-0.3,0.2-0.6,0.5-0.8c0.6-0.4,1.3-0.7,2.1-0.4c0.4,0.1,0.7,0.4,0.7,0.8c0.1,0.8,0.1,1.7,0,2.5
                c-0.1,1.5-0.2,3-0.2,4.4c0,0.1,0.1,0.2,0.1,0.4c0.1-0.1,0.3-0.1,0.4-0.2c0.3-0.5,0.6-1,0.8-1.5c0.4-0.9,0.7-1.9,1-2.8
                c0.3-1.2,0.5-2.3,0.8-3.5c0.1-0.3,0.2-0.7,0.5-0.8c0.3-0.1,0.7-0.3,1.1-0.3c0.5,0,0.7,0.3,0.6,0.8c-0.1,0.9-0.3,1.8-0.4,2.6
                c-0.1,1-0.1,2,0,3c0.1,0.3,0.2,0.6,0.4,0.9c0.5,0.7,1.1,0.7,1.7,0.1c0.9-0.9,1.2-2,1.4-3.2c0.1-1,0.1-2-0.3-2.9
                c-0.2-0.6-0.5-1.2-1-1.6c-0.4-0.3-0.4-0.7,0-1.1c0.8-0.7,1.9-0.6,2.4,0.3C52.9,63.8,53,64.1,53.1,64.3z"/>
        <path d="M46.9,88.1c0.1,1.6-0.1,2.9-0.6,4.2c-0.4,1.1-1,2.1-1.8,3.1c-0.6,0.8-1.4,1.5-2.3,1.8c-1.5,0.5-2.6,0-3.1-1.6
                c-0.1-0.3-0.1-0.7-0.2-1c0-0.1-0.1-0.3-0.2-0.3c-0.1,0-0.2,0.1-0.3,0.2c-0.3,0.4-0.5,0.9-0.9,1.4c-0.7,0.9-1.3,1.7-2.3,2.3
                c-0.7,0.4-1.5-0.2-1.7-0.9c-0.2-0.9,0-1.7,0.2-2.5c0.3-1.2,0.6-2.4,0.8-3.6c0.1-0.3,0.1-0.7,0.1-1c0-0.4-0.1-0.7-0.5-0.9
                c-0.3-0.1-0.6-0.2-0.6-0.6c0-0.3,0.3-0.6,0.6-0.7c0.7-0.3,1.4-0.5,2.1-0.1c0.4,0.2,0.6,0.5,0.6,0.9c-0.1,0.8-0.2,1.7-0.3,2.5
                c-0.3,1.5-0.6,2.9-0.9,4.3c0,0.1,0,0.3,0.1,0.4c0.1,0,0.3,0,0.4-0.1c0.4-0.4,0.8-0.9,1.1-1.4c0.5-0.8,1-1.7,1.4-2.6
                c0.5-1.1,0.9-2.2,1.3-3.4c0.1-0.3,0.3-0.6,0.6-0.7c0.4-0.1,0.7-0.2,1.1-0.1c0.5,0.1,0.7,0.4,0.5,0.9c-0.3,0.9-0.6,1.7-0.8,2.6
                C41,92,40.8,93,40.9,94c0,0.3,0.1,0.6,0.2,0.9c0.4,0.8,1,0.8,1.7,0.4c1-0.7,1.5-1.8,1.9-3c0.3-1,0.4-1.9,0.2-2.9
                c-0.1-0.6-0.3-1.3-0.8-1.8c-0.4-0.4-0.3-0.8,0.2-1.1c0.9-0.6,1.9-0.3,2.3,0.7C46.7,87.6,46.8,87.9,46.9,88.1z"/>
        <path d="M67.2,84.2c-0.2,1.6-0.7,2.8-1.4,4c-0.6,1-1.4,1.9-2.4,2.6c-0.8,0.6-1.6,1.2-2.6,1.3c-1.6,0.2-2.6-0.5-2.7-2.2
                c0-0.4,0-0.7,0-1.1c0-0.1-0.1-0.3-0.1-0.3c-0.1,0-0.3,0-0.3,0.1c-0.4,0.4-0.7,0.8-1.1,1.2c-0.8,0.7-1.6,1.4-2.7,1.8
                c-0.7,0.2-1.5-0.5-1.5-1.2c0-0.9,0.3-1.7,0.7-2.4c0.5-1.1,1-2.2,1.5-3.3c0.1-0.3,0.3-0.7,0.4-1c0.1-0.4,0-0.7-0.3-1
                c-0.2-0.2-0.6-0.4-0.5-0.7c0.1-0.3,0.4-0.5,0.7-0.6c0.7-0.2,1.5-0.2,2.1,0.3c0.4,0.3,0.5,0.6,0.4,1c-0.2,0.8-0.5,1.6-0.8,2.4
                c-0.6,1.4-1.2,2.7-1.8,4.1c0,0.1,0,0.3,0,0.4c0.1,0,0.3,0,0.4-0.1c0.5-0.4,0.9-0.7,1.3-1.1c0.7-0.7,1.3-1.5,1.9-2.3c0.7-1,1.3-2,2-3
                c0.2-0.3,0.4-0.6,0.7-0.6c0.4,0,0.8,0,1.1,0.1c0.5,0.2,0.6,0.5,0.3,1c-0.4,0.8-0.9,1.5-1.3,2.3c-0.5,0.9-0.8,1.8-1,2.8
                c0,0.3,0,0.6,0,0.9c0.2,0.9,0.8,1,1.6,0.7c1.2-0.5,1.8-1.5,2.4-2.5c0.5-0.9,0.8-1.8,0.8-2.8c0-0.7-0.1-1.3-0.4-1.9
                c-0.3-0.5-0.1-0.8,0.4-1c1-0.4,2,0.1,2.1,1.2C67.2,83.6,67.2,84,67.2,84.2z"/>
        <path d="M84.3,82.9c0.8,1.3,1.2,2.6,1.4,4c0.1,1.2,0.1,2.4-0.2,3.5c-0.2,1-0.5,1.9-1.3,2.6c-1.1,1.1-2.3,1.2-3.4,0
                c-0.2-0.3-0.4-0.6-0.7-0.8c-0.1-0.1-0.2-0.2-0.3-0.2c-0.1,0-0.2,0.2-0.2,0.3c-0.1,0.5-0.1,1.1-0.2,1.6c-0.2,1.1-0.4,2.2-1,3.1
                c-0.4,0.6-1.4,0.5-1.9,0c-0.6-0.7-0.8-1.5-1-2.3c-0.3-1.2-0.6-2.4-0.9-3.6c-0.1-0.3-0.2-0.7-0.3-1c-0.1-0.4-0.4-0.6-0.8-0.6
                c-0.3,0-0.7,0.1-0.8-0.3c-0.1-0.3,0-0.6,0.2-0.9c0.5-0.6,1-1,1.8-1.1c0.4,0,0.8,0.2,0.9,0.6c0.3,0.8,0.6,1.6,0.8,2.4
                c0.4,1.4,0.8,2.9,1.1,4.3c0,0.1,0.2,0.2,0.2,0.3c0.1-0.1,0.3-0.2,0.3-0.3c0.1-0.6,0.3-1.1,0.3-1.7c0.1-1,0.1-2,0.1-3
                c-0.1-1.2-0.2-2.4-0.3-3.6c0-0.3,0-0.7,0.2-0.9c0.3-0.2,0.6-0.5,0.9-0.6c0.5-0.2,0.8,0.1,0.9,0.6c0.1,0.9,0.3,1.8,0.4,2.6
                c0.2,1,0.5,1.9,1,2.8c0.1,0.3,0.4,0.5,0.6,0.7c0.7,0.5,1.3,0.3,1.7-0.4c0.6-1.1,0.5-2.3,0.3-3.5c-0.2-1-0.5-1.9-1.2-2.7
                c-0.4-0.5-0.8-1-1.5-1.2c-0.5-0.2-0.6-0.6-0.3-1.1c0.5-0.9,1.6-1.1,2.4-0.4C83.9,82.5,84.2,82.7,84.3,82.9z"/>
        <path d="M80.8,69.5c-0.4,1.5-1.2,2.7-2.1,3.7c-0.8,0.9-1.7,1.6-2.8,2.2c-0.9,0.5-1.8,0.9-2.8,0.8c-1.6-0.1-2.4-0.9-2.3-2.6
                c0-0.3,0.1-0.7,0.2-1c0-0.1,0-0.3-0.1-0.3c-0.1,0-0.3,0-0.3,0c-0.4,0.3-0.9,0.7-1.3,0.9c-0.9,0.5-1.9,1.1-3,1.3
                c-0.8,0.1-1.4-0.7-1.3-1.4c0.1-0.9,0.6-1.6,1.1-2.3c0.7-1,1.4-2,2.1-3c0.2-0.3,0.4-0.6,0.5-0.9c0.2-0.4,0.2-0.7-0.1-1
                c-0.2-0.2-0.5-0.4-0.3-0.8c0.1-0.3,0.5-0.4,0.8-0.4c0.8-0.1,1.5,0.1,2,0.7c0.3,0.3,0.4,0.7,0.2,1.1c-0.4,0.7-0.8,1.5-1.2,2.2
                c-0.8,1.2-1.6,2.5-2.5,3.7c-0.1,0.1-0.1,0.2-0.1,0.4c0.1,0,0.3,0.1,0.4,0c0.5-0.3,1-0.5,1.5-0.9c0.8-0.6,1.6-1.2,2.3-1.9
                c0.9-0.8,1.7-1.8,2.5-2.6c0.2-0.3,0.5-0.5,0.8-0.4c0.4,0,0.8,0.1,1.1,0.3c0.4,0.3,0.5,0.6,0.1,1c-0.6,0.7-1.1,1.4-1.7,2.1
                c-0.6,0.8-1.1,1.6-1.5,2.6c-0.1,0.3-0.1,0.6-0.1,0.9c0.1,0.9,0.6,1.1,1.4,0.9c1.2-0.3,2.1-1.1,2.8-2.1c0.6-0.8,1.1-1.7,1.2-2.7
                c0.1-0.6,0.2-1.3-0.1-1.9c-0.2-0.5,0-0.8,0.6-0.9c1-0.2,1.9,0.5,1.9,1.5C80.8,68.9,80.8,69.3,80.8,69.5z"/>
        <path fill="none" stroke="#000000" stroke-width="2" stroke-miterlimit="10" d="M24,55.9c0,0,9.5-4,16-4s12.7,4,20.9,4
                S75.5,52,82.1,52s16,3.9,16,3.9"/>
        <path fill="none" stroke="#000000" stroke-width="2" stroke-miterlimit="10" d="M32.2,25.1C24,15.3,12.7,14.7,12.7,14.7"/>
        <path fill="none" stroke="#000000" stroke-width="2" stroke-miterlimit="10" d="M36.2,19.1C24.5,7.8,12.7,7.8,12.7,7.8"/>
        <path fill="none" stroke="#000000" stroke-width="2" stroke-miterlimit="10" d="M40.2,13.1C28.8,1,12.7,1,12.7,1"/>
    </symbol>
    <symbol id="varv-icon" viewBox="0 0 567 567">
        <!-- License:
            Copyright (c) 2022 Jonas Oxenbøll Petersen, CAVI - Center for Advanced Visualization and Interaction, Aarhus University
            Distributed under Creative Commons Attribution 4.0 (CC-BY-4.0)
        -->        
        <path fill="none" stroke="#000" stroke-miterlimit="10" stroke-width="50" d="M39 56h503M6 147h503M95 238h472M26 329h416M1 420h503M39 511h485"/>
    </symbol>
    <symbol id="codestrates-icon" viewBox="0 0 567 567">
        <!-- License:
            Copyright (c) 2022 Jonas Oxenbøll Petersen, CAVI - Center for Advanced Visualization and Interaction, Aarhus University
            Distributed under Creative Commons Attribution 4.0 (CC-BY-4.0)
        -->        
        <ellipse cx="283.5" cy="250.8" fill="none" stroke="#000" stroke-miterlimit="10" stroke-width="20" rx="270.1" ry="86.3"/><ellipse cx="283.5" cy="316.2" fill="none" stroke="#000" stroke-miterlimit="10" stroke-width="20" rx="270.1" ry="86.3"/><path fill="none" stroke="#000" stroke-miterlimit="10" stroke-width="20" d="M13 251v65M554 251v65"/><path fill="none" stroke="#000" stroke-miterlimit="10" stroke-width="9" d="m262 308-25-25 25-25M305 258l26 25-26 25M291 249l-15 69"/>
    </symbol>
    <symbol id="components-icon" viewBox="0 0 567 567">
        <!-- License:
            Copyright (c) 2022 Jonas Oxenbøll Petersen, CAVI - Center for Advanced Visualization and Interaction, Aarhus University
            Distributed under Creative Commons Attribution 4.0 (CC-BY-4.0)
        -->        
        <path fill="currentColor" d="M335 410c-1 13-4 23-9 33-5 8-11 16-18 23-6 5-12 10-20 11-13 3-21-2-23-16l-1-8-1-3-3 1-8 10c-6 6-13 13-21 16-6 2-12-3-13-9 0-7 2-13 4-20l11-27 2-9c1-3 0-5-3-7-2-2-4-3-4-6 1-3 3-4 6-5 5-2 11-2 17 2 3 2 4 5 3 8l-5 19-12 34v3l3-1 10-9 14-20 14-25c2-3 3-5 6-5h9c4 1 5 4 3 8l-9 19c-3 8-6 15-7 23l1 8c2 7 7 8 13 5 9-5 14-13 18-22 4-8 5-15 5-23-1-6-1-11-4-16-3-3-2-6 3-8 7-4 15 0 17 8l2 8z"/><path fill="none" stroke="currentColor" stroke-miterlimit="10" stroke-width="20" d="M13 364h541v144H13zM80 326h100v38H80zM385 326h100v38H385z"/><path fill="currentColor" d="M335 144c-1 13-4 24-9 33s-11 16-18 23c-6 5-12 10-20 12-13 2-21-3-23-16l-1-9-1-2c-1-1-2 0-3 1l-8 9c-6 7-13 13-21 16-6 3-12-3-13-8 0-8 2-14 4-21l11-27 2-8c1-3 0-6-3-8-2-1-4-3-4-6 1-2 3-4 6-5 5-2 11-2 17 2 3 2 4 5 3 8l-5 20-12 33v3h3l10-10 14-19 14-26c2-2 3-5 6-5h9c4 1 5 4 3 8l-9 20c-3 7-6 15-7 23l1 7c2 7 7 8 13 5 9-5 14-13 18-22 4-7 5-15 5-23-1-6-1-11-4-15s-2-7 3-9c7-4 15 0 17 8l2 8z"/><path fill="none" stroke="currentColor" stroke-miterlimit="10" stroke-width="20" d="M13 98h541v144H13zM80 60h100v38H80zM385 60h100v38H385z"/>
    </symbol>
</svg>
